Coordinates
version=1
nRows=11
nColumns=40
inDegrees=yes

Units are S.I. units (second, meters, Newtons, ...)
Angles are in degrees.

endheader
time	pelvis_tilt	pelvis_list	pelvis_rotation	pelvis_tx	pelvis_ty	pelvis_tz	hip_flexion_r	hip_adduction_r	hip_rotation_r	knee_angle_r	knee_angle_r_beta	ankle_angle_r	subtalar_angle_r	mtp_angle_r	hip_flexion_l	hip_adduction_l	hip_rotation_l	knee_angle_l	knee_angle_l_beta	ankle_angle_l	subtalar_angle_l	mtp_angle_l	lumbar_extension	lumbar_bending	lumbar_rotation	arm_flex_r	arm_add_r	arm_rot_r	elbow_flex_r	pro_sup_r	wrist_flex_r	wrist_dev_r	arm_flex_l	arm_add_l	arm_rot_l	elbow_flex_l	pro_sup_l	wrist_flex_l	wrist_dev_l
     58.04750000	     -1.67193992	     -5.02591430	     -0.42501327	      1.03815366	      0.93633780	      0.44936659	     30.82490649	     -5.52159901	     -3.51293633	     57.79161629	     57.79161629	     -1.28383624	    -12.19788945	     -1.16614764	     10.38067603	     -5.54563043	     -7.50839833	     20.75601642	     20.75601642	     13.88458387	    -10.89424008	     -0.35871891	    -11.18911964	      5.80921558	      1.71238687	     -0.49428349	    -12.62635833	     -3.81008155	     25.00716100	     46.85303602	      0.00000000	      0.00000000	     21.36012356	    -18.16181772	      0.67902960	     65.65771911	     46.25554203	      0.00000000	      0.00000000
     58.06071429	     -1.86636934	     -5.05040716	     -0.83022179	      1.03778934	      0.93652286	      0.44940463	     30.93048406	     -5.37414428	     -3.88861900	     54.63352348	     54.63352348	     -0.84216316	    -12.16388853	     -1.54477508	      9.85575078	     -5.56821028	     -7.95468718	     20.15588073	     20.15588073	     13.80564889	    -10.76805945	     -0.92325350	    -11.19959132	      5.84036551	      1.20206943	     -1.64610493	    -12.57613793	     -4.92945179	     25.27112437	     46.90402155	      0.00000000	      0.00000000	     20.87761356	    -18.40670905	     -1.82636185	     68.78624441	     46.53468845	      0.00000000	      0.00000000
     58.07392857	     -2.05059622	     -5.08880477	     -1.22058917	      1.03737272	      0.93673533	      0.44959251	     30.85691488	     -5.17908687	     -4.33098840	     51.09413899	     51.09413899	     -0.23571525	    -11.82230368	     -1.35720889	      9.31865066	     -5.58670740	     -8.31021375	     19.54746721	     19.54746721	     13.88629784	    -10.66635815	     -0.92542508	    -11.17356600	      5.89064750	      1.31451150	     -2.83745698	    -12.68938017	     -5.05580130	     24.83335221	     46.91856717	      0.00000000	      0.00000000	     21.47593771	    -18.56173697	     -2.34463515	     69.77596594	     46.60042729	      0.00000000	      0.00000000
     58.08714286	     -2.36889290	     -5.09244932	     -1.61237944	      1.03687143	      0.93660405	      0.44998194	     30.79914375	     -4.96602067	     -4.77813071	     47.25830711	     47.25830711	      0.36593084	    -11.23968258	     -1.15047532	      8.98124981	     -5.59260028	     -8.68041569	     19.02638665	     19.02638665	     13.96493478	    -10.55780618	     -0.97879179	    -10.99782514	      5.91937601	      1.37980170	     -3.99554136	    -12.70463792	     -5.16930474	     24.54991230	     46.92628984	      0.00000000	      0.00000000	     22.02440039	    -18.84023250	     -2.89968833	     70.76614416	     46.66506478	      0.00000000	      0.00000000
     58.10035714	     -2.50811581	     -5.07164474	     -2.02013905	      1.03656073	      0.93662043	      0.45057035	     30.30396643	     -4.73061857	     -5.28140614	     42.97652354	     42.97652354	      0.52968219	    -10.44180491	     -2.29650512	      8.34563990	     -5.59715627	     -9.24428015	     18.33151400	     18.33151400	     13.78850150	    -10.26341933	     -1.81534537	    -11.16654378	      5.84037827	      1.09456085	     -5.12011718	    -12.71478175	     -6.10373452	     25.43554344	     46.92350969	      0.00000000	      0.00000000	     21.47256478	    -18.78789070	     -5.40005463	     73.99191119	     46.94541990	      0.00000000	      0.00000000
     58.11357143	     -2.75746531	     -5.04522854	     -2.38274239	      1.03617604	      0.93640615	      0.45128153	     29.82005168	     -4.47088712	     -5.87033696	     38.55946485	     38.55946485	      1.04542869	     -9.02430456	     -2.17139183	      7.92729016	     -5.58922976	     -9.66057890	     17.80638336	     17.80638336	     13.87502094	    -10.03931466	     -1.99172167	    -11.11198991	      5.79478473	      1.28174231	     -6.10780162	    -12.71972391	     -6.23454689	     25.25058556	     46.92419797	      0.00000000	      0.00000000	     21.92491363	    -18.88093002	     -5.93693575	     75.05946484	     47.01761681	      0.00000000	      0.00000000
     58.12678571	     -3.17603202	     -5.02873117	     -2.72601789	      1.03577648	      0.93582052	      0.45224113	     29.39113903	     -4.07429930	     -6.34906465	     34.00621353	     34.00621353	      1.42174180	     -7.57115899	     -1.70275683	      7.77796355	     -5.62154774	     -9.99414276	     17.42957198	     17.42957198	     13.97197835	     -9.93836199	     -2.11596951	    -10.80914157	      5.77473985	      1.28820195	     -6.95106988	    -12.65510007	     -6.30403713	     25.12332391	     46.92368328	      0.00000000	      0.00000000	     22.28065861	    -19.10564130	     -6.29579112	     75.73777216	     47.06104218	      0.00000000	      0.00000000
     58.14000000	     -3.29763836	     -5.02268540	     -3.00501716	      1.03572567	      0.93555100	      0.45324479	     28.43394858	     -3.71730395	     -7.12369895	     29.33488554	     29.33488554	      1.79864742	     -5.32700250	     -1.22453271	      7.23228383	     -5.66556034	    -10.42808997	     16.96102558	     16.96102558	     14.10492872	     -9.56479085	     -2.42270224	    -10.89061775	      5.72760700	      1.39503150	     -7.81708542	    -12.68801356	     -6.46557624	     25.22967372	     46.91771683	      0.00000000	      0.00000000	     22.51019891	    -19.10383747	     -6.88867476	     76.84374085	     47.13030196	      0.00000000	      0.00000000
     58.15321429	     -3.68482431	     -4.89384248	     -3.29271331	      1.03561866	      0.93471391	      0.45452545	     27.78829147	     -3.35077293	     -7.66297916	     24.89751657	     24.89751657	      1.91894731	     -3.33861838	     -0.44670414	      7.04344852	     -5.60561488	    -10.82707817	     16.59166011	     16.59166011	     14.21449913	     -9.31905726	     -2.67651294	    -10.59532633	      5.54115973	      1.42841406	     -8.47641074	    -12.49743679	     -6.55412080	     25.32745660	     46.90968493	      0.00000000	      0.00000000	     22.70914719	    -19.22015271	     -7.30659077	     77.57925356	     47.17778118	      0.00000000	      0.00000000
     58.16642857	     -3.75624529	     -4.82950476	     -3.48039764	      1.03596891	      0.93420219	      0.45577724	     26.68266594	     -2.98246129	     -8.52242585	     20.68785037	     20.68785037	      2.05936026	     -0.82752108	      0.61027547	      6.46312840	     -5.60419570	    -11.23915571	     16.18876956	     16.18876956	     14.38017761	     -8.86479670	     -3.08905518	    -10.62624184	      5.46659466	      1.42561387	     -9.16219720	    -12.47806434	     -6.71009049	     25.57069742	     46.89915867	      0.00000000	      0.00000000	     22.78162674	    -19.22073506	     -7.83790975	     78.45500917	     47.23652113	      0.00000000	      0.00000000
     58.17964286	     -3.88277087	     -4.68020392	     -3.64986113	      1.03644532	      0.93342849	      0.45720179	     25.78571265	     -2.69076525	     -9.37245591	     17.16292772	     17.16292772	      2.14884006	      1.56062163	      1.94343665	      5.95358940	     -5.52671961	    -11.68269164	     15.80538423	     15.80538423	     14.54326607	     -8.38764981	     -3.55723715	    -10.56366444	      5.28369791	      1.38665240	     -9.70158811	    -12.35895775	     -6.85501577	     25.91420721	     46.88375260	      0.00000000	      0.00000000	     22.77490318	    -19.23098516	     -8.35196515	     79.19554968	     47.29189093	      0.00000000	      0.00000000
